<svg xmlns="http://www.w3.org/2000/svg" viewBox="0 0 347.67 243.26"><defs><style>.cls-1{fill:#9856a2;stroke:#231f20;stroke-miterlimit:10;}.cls-2{font-size:210px;fill:#231f20;font-family:BookmanOldStyle, Bookman Old Style;}</style></defs><g id="Layer_2" data-name="Layer 2"><g id="Layer_1-2" data-name="Layer 1"><path class="cls-1" d="M332,26.15l1.9,64.36s.81-22.91-30-23.76-21.71,26-21.71,26,11.68,18,40.07,19.87,41.74,72.18-10.72,57.11c-29.66-8.52-40.39,14.83-40.39,14.83l7.57-58.06s18.3,39.76,38.81,27.14c31.18-19.19-44.17-43.23-44.17-43.23-12.61.11-54.47-54.82,22-59.79C331.23,48.26,332,26.15,332,26.15Z"/><path class="cls-1" d="M82,26.15l1.9,64.36s.81-22.91-30-23.76-21.71,26-21.71,26,11.68,18,40.07,19.87,41.74,72.18-10.72,57.11c-29.66-8.52-40.39,14.83-40.39,14.83l7.57-58.06S47,166.23,67.47,153.61c31.18-19.19-44.17-43.23-44.17-43.23-12.61.11-54.47-54.82,22-59.79C81.23,48.26,82,26.15,82,26.15Z"/><text class="cls-2" transform="translate(100.5 176.5)">K </text></g></g></svg>