<svg xmlns="http://www.w3.org/2000/svg" viewBox="0 0 328.72 330.77"><defs><style>.cls-1{fill:#9856a2;stroke:#231f20;stroke-miterlimit:10;}.cls-2{font-size:210px;fill:#231f20;font-family:BookmanOldStyle, Bookman Old Style;}</style></defs><g id="Layer_2" data-name="Layer 2"><g id="Layer_1-2" data-name="Layer 1"><path class="cls-1" d="M82,169.19l1.9,64.36s.81-22.91-30-23.76-21.71,26-21.71,26,11.68,18,40.07,19.88,41.74,72.17-10.72,57.1c-29.66-8.52-40.39,14.83-40.39,14.83l7.57-58.05S47,309.27,67.47,296.65c31.18-19.19-44.17-43.22-44.17-43.22-12.61.11-54.47-54.83,22-59.79C81.23,191.3,82,169.19,82,169.19Z"/><path class="cls-1" d="M313,0l1.89,64.36s.82-22.91-30-23.76-21.7,26-21.7,26,11.68,18,40.07,19.87,41.74,72.18-10.73,57.11c-29.65-8.52-40.38,14.83-40.38,14.83l7.57-58.06s18.3,39.76,38.81,27.14c31.18-19.19-44.17-43.23-44.17-43.23-12.61.11-54.47-54.82,22-59.79C312.28,22.13,313,0,313,0Z"/><text class="cls-2" transform="translate(86.67 229.56)">K </text></g></g></svg>